<svg xmlns="http://www.w3.org/2000/svg" width="130" height="26" viewBox="0 0 130 26">
  <g fill="#FFFFFF" fill-rule="evenodd">
    <path d="M12.6381283,14.8665806 C11.1002594,14.6699834 8.8512069,14.9136279 7.48659056,15.5082244 L10.8193802,6.82971691 L17.2848509,22.3873265 L22.2207316,22.3873265 L13.6988459,1.89416485 L7.90578906,1.89416485 L-2.01926064e-05,22.3983376 L4.93081236,22.3983376 C5.82736409,19.3468759 9.75038366,17.0523738 13.3919183,16.7278481 L12.6381283,14.8665806 Z"/>
    <polygon points="39.448 19.298 39.448 23.31 25.103 23.31 25.103 2.69 30.166 2.69 30.166 19.298"/>
    <polygon points="78 2.69 78 6.696 71.191 6.696 71.191 23.31 65.971 23.31 65.971 6.696 59.172 6.696 59.172 2.69"/>
    <polygon points="129.987 1.919 129.987 22.387 124.858 22.387 124.858 9.895 120.054 16.514 119.317 16.514 114.515 9.895 114.515 22.387 109.388 22.387 109.388 1.919 113.886 1.919 119.674 9.71 125.539 1.919"/>
    <path d="M104.406787 18.8275862C106.166064 15.2646956 105.901078 11.0014986 104 7.67258882L105.184592 6.27586207C107.200826 10.0680294 107.227106 14.8376396 105.046624 18.801202L104.406787 18.8275862zM85.6511099 14.396589C85.6767407 10.6906677 88.6987378 7.63617953 92.5006445 7.5428252 96.384936 7.43411654 99.6056738 10.440085 99.6998569 14.2526677 99.7999392 18.0691402 96.74153 21.2335654 92.8582556 21.3338803 90.9206868 21.3840378 89.1472774 20.6570614 87.8484451 19.4551244L86.8335863 20.4979906C82.3435121 16.3199748 82.1657236 9.35770709 86.4249169 4.95756535 89.8445987 1.41808504 95.0952577.611061417 99.3398048 2.58583307L99.3965587 2.64458898 99.9372472 2.03553386C94.5334136-1.12500157 87.4045842-.225647244 82.8506364 4.4740063 77.4821977 10.0214236 77.7366752 18.776463 83.3866462 24.0378803L84.4035393 22.990715C86.6366764 25.0559748 89.2382058 26.0740693 92.2715944 25.9958646 98.3758007 25.8341323 103.195211 20.8552346 103.042239 14.8606992 102.964533 11.8631244 101.657564 9.1791874 99.6056738 7.2727937L100.320693 6.51920315C96.7693985 3.21474646 90.8905808 3.28599055 87.4662203 6.82895118 85.4293828 8.93351811 84.4694472 11.768337 84.9267338 14.422589L85.6511099 14.396589zM56.6926088 7.01758069C50.7508146 4.88777062 46.9246375 6.35011942 46.9246375 8.02233483 46.9246375 11.8467515 58.2907663 9.67399104 58.2758474 17.1239498 58.259498 22.700376 53.5745667 24.2068966 48.7784593 24.2068966 46.772179 24.2068966 44.2705107 23.8991194 42.352313 23.2833614L42.8479053 18.8051217C44.2862471 19.4909031 46.4047254 19.9576578 48.7784593 19.9576578 50.8572903 19.9576578 53.3229898 19.5511557 53.4511285 17.9159876 53.7862919 13.6687844 42.137931 16.3302836 42.137931 8.56196271 42.137931 3.38939233 47.0617684 1.79310345 51.3931431 1.79310345 53.4229257 1.79310345 56.1044378 2.48641637 57.0347207 2.90513178L56.6926088 7.01758069z"/>
  </g>
</svg>
